<svg width="18" height="15" viewBox="0 0 18 15" fill="none" xmlns="http://www.w3.org/2000/svg">
<path d="M12.0477 8.00197L11.1477 7.21254C11.5023 6.3633 11.3182 5.6576 10.5955 5.09543C9.87273 4.53326 9.08864 4.38972 8.24318 4.66483L7.34318 3.8754C7.575 3.74382 7.83409 3.64813 8.12045 3.58833C8.40682 3.52852 8.7 3.49862 9 3.49862C9.96818 3.49862 10.7898 3.79466 11.4648 4.38673C12.1398 4.97881 12.4773 5.69946 12.4773 6.5487C12.4773 6.81184 12.4398 7.072 12.3648 7.32916C12.2898 7.58633 12.1841 7.8106 12.0477 8.00197ZM14.6864 10.3164L13.8682 9.59878C14.5364 9.16818 15.1193 8.68675 15.617 8.15448C16.1148 7.62221 16.4795 7.08695 16.7114 6.5487C16.0295 5.22102 15.0068 4.17143 13.6432 3.39994C12.2795 2.62845 10.8 2.24271 9.20455 2.24271C8.63182 2.24271 8.04545 2.29055 7.44545 2.38624C6.84545 2.48193 6.375 2.59556 6.03409 2.72713L5.09318 1.88387C5.57045 1.6925 6.18068 1.52504 6.92386 1.38151C7.66705 1.23797 8.39318 1.16621 9.10227 1.16621C11.0523 1.16621 12.8352 1.65362 14.4511 2.62845C16.067 3.60328 17.25 4.91003 18 6.5487C17.6455 7.31421 17.1886 8.01394 16.6295 8.64787C16.0705 9.28181 15.4227 9.838 14.6864 10.3164ZM15.8727 14.3713L12.4364 11.4109C11.9591 11.5783 11.4205 11.7069 10.8205 11.7966C10.2205 11.8863 9.61364 11.9312 9 11.9312C7.00909 11.9312 5.20227 11.4438 3.57955 10.4689C1.95682 9.49412 0.763636 8.18737 0 6.5487C0.272727 5.92672 0.651136 5.3197 1.13523 4.72762C1.61932 4.13555 2.20909 3.57039 2.90455 3.03214L0.327273 0.771491L1.18636 0L16.6705 13.5818L15.8727 14.3713ZM3.74318 3.78569C3.23864 4.10864 2.75114 4.53326 2.28068 5.05954C1.81023 5.58583 1.47273 6.08222 1.26818 6.5487C1.96364 7.87638 3.01023 8.92597 4.40795 9.69746C5.80568 10.4689 7.39091 10.8547 9.16364 10.8547C9.61364 10.8547 10.0568 10.8308 10.4932 10.7829C10.9295 10.7351 11.2568 10.6633 11.475 10.5676L10.1659 9.41936C10.0159 9.47917 9.83182 9.52402 9.61364 9.55393C9.39545 9.58383 9.19091 9.59878 9 9.59878C8.04545 9.59878 7.22727 9.30573 6.54545 8.71964C5.86364 8.13354 5.52273 7.4099 5.52273 6.5487C5.52273 6.36928 5.53977 6.18987 5.57386 6.01045C5.60795 5.83103 5.65909 5.66956 5.72727 5.52603L3.74318 3.78569Z" fill="#737380"/>
</svg>
